<?xml version="1.0" encoding="UTF-8"?>
<svg width="520px" height="360px" viewBox="0 0 520 360" version="1.1" xmlns="http://www.w3.org/2000/svg" xmlns:xlink="http://www.w3.org/1999/xlink">
    <!-- Generator: Sketch 52.5 (67469) - http://www.bohemiancoding.com/sketch -->
    <title>Rectangle 2</title>
    <desc>Created with Sketch.</desc>
    <defs>
        <rect id="path-1" x="0" y="0" width="520" height="360"></rect>
        <linearGradient x1="129.882812%" y1="123.583984%" x2="0%" y2="1.72254642e-14%" id="linearGradient-3">
            <stop stop-color="#18ADBE" offset="0%"></stop>
            <stop stop-color="#1145B7" offset="100%"></stop>
        </linearGradient>
    </defs>
    <g id="Page-1" stroke="none" stroke-width="1" fill="none" fill-rule="evenodd">
        <g id="Artboard" transform="translate(-860.000000, -522.000000)">
            <g id="Rectangle-2" transform="translate(860.000000, 522.000000)">
                <mask id="mask-2" fill="white">
                    <use xlink:href="#path-1"></use>
                </mask>
                <use id="Rectangle" fill="#ECECEC" xlink:href="#path-1"></use>
                <rect id="Rectangle" fill="#C0E8F4" mask="url(#mask-2)" x="1" y="0" width="520" height="360"></rect>
                <rect id="Rectangle" fill="url(#linearGradient-3)" mask="url(#mask-2)" x="0" y="0" width="521" height="360"></rect>
                <g id="Group-6" mask="url(#mask-2)">
                    <g transform="translate(119.000000, 156.000000)">
                        <g id="favicon" stroke-width="1" fill="none" transform="translate(0.000000, 1.000000)">
                            <rect id="Rectangle-9" fill="#FFFFFF" x="0" y="0" width="48" height="48" rx="3"></rect>
                            <text id="L" font-family="Lato-Black, Lato" font-size="29" font-weight="700" letter-spacing="0.18125" fill="#1258B8">
                                <tspan x="17" y="34">L</tspan>
                            </text>
                        </g>
                        <path d="M69.411,29 L69.411,17.882 L71.383,17.882 L71.383,27.334 L76.007,27.334 L76.007,29 L69.411,29 Z M77.775,29 L77.775,20.653 L79.73,20.653 L79.73,29 L77.775,29 Z M78.761,19.191 C78.4096649,19.191 78.1206678,19.089001 77.894,18.885 C77.6673322,18.680999 77.554,18.4146683 77.554,18.086 C77.554,17.7573317 77.6673322,17.4881677 77.894,17.2785 C78.1206678,17.0688323 78.4096649,16.964 78.761,16.964 C79.1123351,16.964 79.4013322,17.0688323 79.628,17.2785 C79.8546678,17.4881677 79.968,17.7573317 79.968,18.086 C79.968,18.4146683 79.8546678,18.680999 79.628,18.885 C79.4013322,19.089001 79.1123351,19.191 78.761,19.191 Z M82.229,29 L82.229,20.653 L83.844,20.653 L83.98,21.775 L84.048,21.775 C84.4220019,21.4123315 84.8271645,21.100668 85.2635,20.84 C85.6998355,20.579332 86.2069971,20.449 86.785,20.449 C87.6803378,20.449 88.331998,20.7351638 88.74,21.3075 C89.148002,21.8798362 89.352,22.6986613 89.352,23.764 L89.352,29 L87.397,29 L87.397,24.019 C87.397,23.3276632 87.295001,22.8403347 87.091,22.557 C86.886999,22.2736653 86.552669,22.132 86.088,22.132 C85.7253315,22.132 85.4051681,22.2198325 85.1275,22.3955 C84.8498319,22.5711675 84.5353351,22.8289983 84.184,23.169 L84.184,29 L82.229,29 Z M91.749,29 L91.749,16.998 L93.67,16.998 L93.67,24.495 L93.721,24.495 L96.815,20.653 L98.957,20.653 L96.101,24.053 L99.246,29 L97.121,29 L94.979,25.379 L93.67,26.875 L93.67,29 L91.749,29 Z M103.802,29.204 C103.223997,29.204 102.685669,29.1048343 102.187,28.9065 C101.688331,28.7081657 101.252002,28.4220019 100.878,28.048 C100.503998,27.6739981 100.212168,27.217836 100.0025,26.6795 C99.7928323,26.141164 99.688,25.5263368 99.688,24.835 C99.688,24.1549966 99.7956656,23.5430027 100.011,22.999 C100.226334,22.4549973 100.512498,21.9960019 100.8695,21.622 C101.226502,21.2479981 101.637331,20.959001 102.102,20.755 C102.566669,20.550999 103.042664,20.449 103.53,20.449 C104.09667,20.449 104.595331,20.5453324 105.026,20.738 C105.456669,20.9306676 105.816499,21.2026649 106.1055,21.554 C106.394501,21.9053351 106.612666,22.3246642 106.76,22.812 C106.907334,23.2993358 106.981,23.8319971 106.981,24.41 C106.981,24.6026676 106.9725,24.7839991 106.9555,24.954 C106.9385,25.1240009 106.918667,25.2599995 106.896,25.362 L101.592,25.362 C101.682667,26.1100037 101.946164,26.6851647 102.3825,27.0875 C102.818836,27.4898353 103.376997,27.691 104.057,27.691 C104.419668,27.691 104.756832,27.6371672 105.0685,27.5295 C105.380168,27.4218328 105.688998,27.2716676 105.995,27.079 L106.658,28.303 C106.261331,28.563668 105.819336,28.7789992 105.332,28.949 C104.844664,29.1190008 104.334669,29.204 103.802,29.204 Z M101.575,24.036 L105.281,24.036 C105.281,23.3899968 105.142168,22.8828352 104.8645,22.5145 C104.586832,22.1461648 104.159003,21.962 103.581,21.962 C103.082331,21.962 102.646002,22.1376649 102.272,22.489 C101.897998,22.8403351 101.665667,23.3559966 101.575,24.036 Z M108.851,29 L108.851,20.653 L110.466,20.653 L110.602,22.132 L110.67,22.132 C110.964668,21.5879973 111.321665,21.1715014 111.741,20.8825 C112.160335,20.5934986 112.590998,20.449 113.033,20.449 C113.429669,20.449 113.746999,20.5056661 113.985,20.619 L113.645,22.319 C113.497666,22.2736664 113.361667,22.2396668 113.237,22.217 C113.112333,22.1943332 112.959334,22.183 112.778,22.183 C112.449332,22.183 112.103668,22.3104987 111.741,22.5655 C111.378332,22.8205013 111.066668,23.2653302 110.806,23.9 L110.806,29 L108.851,29 Z M118.065,25.43 L118.065,24.002 L122.111,24.002 L122.111,25.43 L118.065,25.43 Z M130.951,29.204 C130.384331,29.204 129.854502,29.1076676 129.3615,28.915 C128.868498,28.7223324 128.440668,28.4390019 128.078,28.065 C127.715332,27.6909981 127.432001,27.2320027 127.228,26.688 C127.023999,26.1439973 126.922,25.5263368 126.922,24.835 C126.922,24.1436632 127.035332,23.5260027 127.262,22.982 C127.488668,22.4379973 127.794665,21.9790019 128.18,21.605 C128.565335,21.2309981 129.010164,20.9448343 129.5145,20.7465 C130.018836,20.5481657 130.548664,20.449 131.104,20.449 C131.648003,20.449 132.115498,20.5396658 132.5065,20.721 C132.897502,20.9023342 133.245998,21.123332 133.552,21.384 L132.6,22.659 C132.373332,22.4663324 132.149501,22.3161672 131.9285,22.2085 C131.707499,22.1008328 131.466668,22.047 131.206,22.047 C130.525997,22.047 129.976335,22.2991641 129.557,22.8035 C129.137665,23.3078359 128.928,23.9849957 128.928,24.835 C128.928,25.6736709 129.134831,26.3451641 129.5485,26.8495 C129.962169,27.3538359 130.497663,27.606 131.155,27.606 C131.483668,27.606 131.792499,27.5351674 132.0815,27.3935 C132.370501,27.2518326 132.633999,27.0846676 132.872,26.892 L133.671,28.184 C133.274331,28.5240017 132.840836,28.7789992 132.3705,28.949 C131.900164,29.1190008 131.427002,29.204 130.951,29.204 Z M138.329,29.204 C137.807664,29.204 137.309002,29.1076676 136.833,28.915 C136.356998,28.7223324 135.934835,28.4390019 135.5665,28.065 C135.198165,27.6909981 134.906334,27.2320027 134.691,26.688 C134.475666,26.1439973 134.368,25.5263368 134.368,24.835 C134.368,24.1436632 134.475666,23.5260027 134.691,22.982 C134.906334,22.4379973 135.198165,21.9790019 135.5665,21.605 C135.934835,21.2309981 136.356998,20.9448343 136.833,20.7465 C137.309002,20.5481657 137.807664,20.449 138.329,20.449 C138.850336,20.449 139.351831,20.5481657 139.8335,20.7465 C140.315169,20.9448343 140.737332,21.2309981 141.1,21.605 C141.462668,21.9790019 141.754499,22.4379973 141.9755,22.982 C142.196501,23.5260027 142.307,24.1436632 142.307,24.835 C142.307,25.5263368 142.196501,26.1439973 141.9755,26.688 C141.754499,27.2320027 141.462668,27.6909981 141.1,28.065 C140.737332,28.4390019 140.315169,28.7223324 139.8335,28.915 C139.351831,29.1076676 138.850336,29.204 138.329,29.204 Z M138.329,27.606 C138.941003,27.606 139.422665,27.3538359 139.774,26.8495 C140.125335,26.3451641 140.301,25.6736709 140.301,24.835 C140.301,23.9849957 140.125335,23.3078359 139.774,22.8035 C139.422665,22.2991641 138.941003,22.047 138.329,22.047 C137.716997,22.047 137.238168,22.2991641 136.8925,22.8035 C136.546832,23.3078359 136.374,23.9849957 136.374,24.835 C136.374,25.6736709 136.546832,26.3451641 136.8925,26.8495 C137.238168,27.3538359 137.716997,27.606 138.329,27.606 Z M144.245,29 L144.245,20.653 L146.2,20.653 L146.2,23.9 L147.424,23.9 L148.206,22.217 C148.364667,21.8543315 148.531832,21.5596678 148.7075,21.333 C148.883168,21.1063322 149.067332,20.927834 149.26,20.7975 C149.452668,20.667166 149.662332,20.5765003 149.889,20.5255 C150.115668,20.4744997 150.359332,20.449 150.62,20.449 C150.846668,20.449 151.044999,20.4829997 151.215,20.551 L150.892,22.37 C150.789999,22.3359998 150.688001,22.319 150.586,22.319 C150.381999,22.319 150.189334,22.3784994 150.008,22.4975 C149.826666,22.6165006 149.645334,22.8856646 149.464,23.305 L148.886,24.597 L151.725,29 L149.566,29 L147.458,25.464 L146.2,25.464 L146.2,29 L144.245,29 Z M153.119,32.298 L153.119,20.653 L154.734,20.653 L154.87,21.537 L154.938,21.537 C155.289335,21.2423319 155.680331,20.9873344 156.111,20.772 C156.541669,20.5566656 156.989331,20.449 157.454,20.449 C157.975336,20.449 158.437165,20.5481657 158.8395,20.7465 C159.241835,20.9448343 159.584665,21.2309981 159.868,21.605 C160.151335,21.9790019 160.366666,22.4266641 160.514,22.948 C160.661334,23.4693359 160.735,24.0529968 160.735,24.699 C160.735,25.4130036 160.635834,26.0504972 160.4375,26.6115 C160.239166,27.1725028 159.975668,27.6428314 159.647,28.0225 C159.318332,28.4021686 158.938669,28.693999 158.508,28.898 C158.077331,29.102001 157.629669,29.204 157.165,29.204 C156.802332,29.204 156.439668,29.1246675 156.077,28.966 C155.714332,28.8073325 155.363002,28.5806681 155.023,28.286 L155.074,29.68 L155.074,32.298 L153.119,32.298 Z M156.757,27.589 C157.312336,27.589 157.776998,27.3481691 158.151,26.8665 C158.525002,26.3848309 158.712,25.6680048 158.712,24.716 C158.712,23.8773291 158.570335,23.225669 158.287,22.761 C158.003665,22.296331 157.54467,22.064 156.91,22.064 C156.320664,22.064 155.70867,22.3756635 155.074,22.999 L155.074,26.892 C155.380002,27.152668 155.674665,27.3339995 155.958,27.436 C156.241335,27.5380005 156.507665,27.589 156.757,27.589 Z M164.526,29.204 C163.78933,29.204 163.194336,28.9801689 162.741,28.5325 C162.287664,28.0848311 162.061,27.4926704 162.061,26.756 C162.061,26.3139978 162.154499,25.9201684 162.3415,25.5745 C162.528501,25.2288316 162.823165,24.9313346 163.2255,24.682 C163.627835,24.4326654 164.13783,24.2230008 164.7555,24.053 C165.37317,23.8829991 166.112662,23.7526671 166.974,23.662 C166.962667,23.4466656 166.9315,23.2398343 166.8805,23.0415 C166.8295,22.8431657 166.744501,22.6675008 166.6255,22.5145 C166.506499,22.3614992 166.350668,22.2425004 166.158,22.1575 C165.965332,22.0724996 165.727335,22.03 165.444,22.03 C165.035998,22.03 164.636502,22.1093325 164.2455,22.268 C163.854498,22.4266675 163.472002,22.6193322 163.098,22.846 L162.384,21.537 C162.848669,21.2423319 163.369997,20.9873344 163.948,20.772 C164.526003,20.5566656 165.14933,20.449 165.818,20.449 C166.860672,20.449 167.639831,20.7578302 168.1555,21.3755 C168.671169,21.9931698 168.929,22.8856608 168.929,24.053 L168.929,29 L167.314,29 L167.178,28.082 L167.11,28.082 C166.735998,28.3993349 166.336502,28.6656656 165.9115,28.881 C165.486498,29.0963344 165.024669,29.204 164.526,29.204 Z M165.155,27.674 C165.495002,27.674 165.803832,27.5946675 166.0815,27.436 C166.359168,27.2773325 166.656665,27.0506681 166.974,26.756 L166.974,24.886 C166.407331,24.9540003 165.931335,25.0446661 165.546,25.158 C165.160665,25.2713339 164.849001,25.3988326 164.611,25.5405 C164.372999,25.6821674 164.203001,25.8436658 164.101,26.025 C163.998999,26.2063342 163.948,26.398999 163.948,26.603 C163.948,26.9770019 164.061332,27.2489991 164.288,27.419 C164.514668,27.5890008 164.803665,27.674 165.155,27.674 Z M181.39,31.924 L181.39,29 L171.275,29 L171.275,20.653 L173.213,20.653 L173.213,27.436 L175.695,27.436 L175.695,20.653 L177.582,20.653 L177.582,27.436 L180.064,27.436 L180.064,20.653 L182.002,20.653 L182.002,27.436 L183.26,27.436 L183.26,28.711 L183.073,31.924 L181.39,31.924 Z M186.898,29.204 C186.16133,29.204 185.566336,28.9801689 185.113,28.5325 C184.659664,28.0848311 184.433,27.4926704 184.433,26.756 C184.433,26.3139978 184.526499,25.9201684 184.7135,25.5745 C184.900501,25.2288316 185.195165,24.9313346 185.5975,24.682 C185.999835,24.4326654 186.50983,24.2230008 187.1275,24.053 C187.74517,23.8829991 188.484662,23.7526671 189.346,23.662 C189.334667,23.4466656 189.3035,23.2398343 189.2525,23.0415 C189.2015,22.8431657 189.116501,22.6675008 188.9975,22.5145 C188.878499,22.3614992 188.722668,22.2425004 188.53,22.1575 C188.337332,22.0724996 188.099335,22.03 187.816,22.03 C187.407998,22.03 187.008502,22.1093325 186.6175,22.268 C186.226498,22.4266675 185.844002,22.6193322 185.47,22.846 L184.756,21.537 C185.220669,21.2423319 185.741997,20.9873344 186.32,20.772 C186.898003,20.5566656 187.52133,20.449 188.19,20.449 C189.232672,20.449 190.011831,20.7578302 190.5275,21.3755 C191.043169,21.9931698 191.301,22.8856608 191.301,24.053 L191.301,29 L189.686,29 L189.55,28.082 L189.482,28.082 C189.107998,28.3993349 188.708502,28.6656656 188.2835,28.881 C187.858498,29.0963344 187.396669,29.204 186.898,29.204 Z M187.527,27.674 C187.867002,27.674 188.175832,27.5946675 188.4535,27.436 C188.731168,27.2773325 189.028665,27.0506681 189.346,26.756 L189.346,24.886 C188.779331,24.9540003 188.303335,25.0446661 187.918,25.158 C187.532665,25.2713339 187.221001,25.3988326 186.983,25.5405 C186.744999,25.6821674 186.575001,25.8436658 186.473,26.025 C186.370999,26.2063342 186.32,26.398999 186.32,26.603 C186.32,26.9770019 186.433332,27.2489991 186.66,27.419 C186.886668,27.5890008 187.175665,27.674 187.527,27.674 Z M195.194,29 L195.194,22.2 L192.576,22.2 L192.576,20.653 L199.784,20.653 L199.784,22.2 L197.166,22.2 L197.166,29 L195.194,29 Z M204.765,29.204 C204.186997,29.204 203.648669,29.1048343 203.15,28.9065 C202.651331,28.7081657 202.215002,28.4220019 201.841,28.048 C201.466998,27.6739981 201.175168,27.217836 200.9655,26.6795 C200.755832,26.141164 200.651,25.5263368 200.651,24.835 C200.651,24.1549966 200.758666,23.5430027 200.974,22.999 C201.189334,22.4549973 201.475498,21.9960019 201.8325,21.622 C202.189502,21.2479981 202.600331,20.959001 203.065,20.755 C203.529669,20.550999 204.005664,20.449 204.493,20.449 C205.05967,20.449 205.558331,20.5453324 205.989,20.738 C206.419669,20.9306676 206.779499,21.2026649 207.0685,21.554 C207.357501,21.9053351 207.575666,22.3246642 207.723,22.812 C207.870334,23.2993358 207.944,23.8319971 207.944,24.41 C207.944,24.6026676 207.9355,24.7839991 207.9185,24.954 C207.9015,25.1240009 207.881667,25.2599995 207.859,25.362 L202.555,25.362 C202.645667,26.1100037 202.909164,26.6851647 203.3455,27.0875 C203.781836,27.4898353 204.339997,27.691 205.02,27.691 C205.382668,27.691 205.719832,27.6371672 206.0315,27.5295 C206.343168,27.4218328 206.651998,27.2716676 206.958,27.079 L207.621,28.303 C207.224331,28.563668 206.782336,28.7789992 206.295,28.949 C205.807664,29.1190008 205.297669,29.204 204.765,29.204 Z M202.538,24.036 L206.244,24.036 C206.244,23.3899968 206.105168,22.8828352 205.8275,22.5145 C205.549832,22.1461648 205.122003,21.962 204.544,21.962 C204.045331,21.962 203.609002,22.1376649 203.235,22.489 C202.860998,22.8403351 202.628667,23.3559966 202.538,24.036 Z M209.593,29.204 C209.264332,29.204 208.969668,29.1473339 208.709,29.034 L209.049,27.266 C209.105667,27.2886668 209.165166,27.3056666 209.2275,27.317 C209.289834,27.3283334 209.366333,27.334 209.457,27.334 C209.717668,27.334 209.932999,27.2178345 210.103,26.9855 C210.273001,26.7531655 210.392,26.3706693 210.46,25.838 C210.573334,24.965329 210.678166,24.1011709 210.7745,23.2455 C210.870834,22.3898291 210.964333,21.525671 211.055,20.653 L216.716,20.653 L216.716,29 L214.761,29 L214.761,22.2 L212.619,22.2 C212.528333,22.8913368 212.443334,23.5854965 212.364,24.2825 C212.284666,24.9795035 212.199667,25.6736632 212.109,26.365 C211.984333,27.294338 211.712335,27.9998309 211.293,28.4815 C210.873665,28.9631691 210.307004,29.204 209.593,29.204 Z M219.198,29 L219.198,20.653 L221.153,20.653 L221.153,23.509 L222.411,23.509 C222.909669,23.509 223.371498,23.5599995 223.7965,23.662 C224.221502,23.7640005 224.586998,23.9226656 224.893,24.138 C225.199002,24.3533344 225.436999,24.6338316 225.607,24.9795 C225.777001,25.3251684 225.862,25.7416642 225.862,26.229 C225.862,26.7276692 225.777001,27.1526649 225.607,27.504 C225.436999,27.8553351 225.199002,28.1414989 224.893,28.3625 C224.586998,28.5835011 224.221502,28.7449995 223.7965,28.847 C223.371498,28.9490005 222.909669,29 222.411,29 L219.198,29 Z M221.153,27.487 L222.275,27.487 C223.408339,27.487 223.975,27.0620043 223.975,26.212 C223.975,25.3959959 223.408339,24.988 222.275,24.988 L221.153,24.988 L221.153,27.487 Z M234.651,29.204 C234.084331,29.204 233.554502,29.1076676 233.0615,28.915 C232.568498,28.7223324 232.140668,28.4390019 231.778,28.065 C231.415332,27.6909981 231.132001,27.2320027 230.928,26.688 C230.723999,26.1439973 230.622,25.5263368 230.622,24.835 C230.622,24.1436632 230.735332,23.5260027 230.962,22.982 C231.188668,22.4379973 231.494665,21.9790019 231.88,21.605 C232.265335,21.2309981 232.710164,20.9448343 233.2145,20.7465 C233.718836,20.5481657 234.248664,20.449 234.804,20.449 C235.348003,20.449 235.815498,20.5396658 236.2065,20.721 C236.597502,20.9023342 236.945998,21.123332 237.252,21.384 L236.3,22.659 C236.073332,22.4663324 235.849501,22.3161672 235.6285,22.2085 C235.407499,22.1008328 235.166668,22.047 234.906,22.047 C234.225997,22.047 233.676335,22.2991641 233.257,22.8035 C232.837665,23.3078359 232.628,23.9849957 232.628,24.835 C232.628,25.6736709 232.834831,26.3451641 233.2485,26.8495 C233.662169,27.3538359 234.197663,27.606 234.855,27.606 C235.183668,27.606 235.492499,27.5351674 235.7815,27.3935 C236.070501,27.2518326 236.333999,27.0846676 236.572,26.892 L237.371,28.184 C236.974331,28.5240017 236.540836,28.7789992 236.0705,28.949 C235.600164,29.1190008 235.127002,29.204 234.651,29.204 Z M242.097,29.204 C241.53033,29.204 241.000502,29.1076676 240.5075,28.915 C240.014498,28.7223324 239.586668,28.4390019 239.224,28.065 C238.861332,27.6909981 238.578001,27.2320027 238.374,26.688 C238.169999,26.1439973 238.068,25.5263368 238.068,24.835 C238.068,24.1436632 238.181332,23.5260027 238.408,22.982 C238.634668,22.4379973 238.940665,21.9790019 239.326,21.605 C239.711335,21.2309981 240.156164,20.9448343 240.6605,20.7465 C241.164836,20.5481657 241.694664,20.449 242.25,20.449 C242.794003,20.449 243.261498,20.5396658 243.6525,20.721 C244.043502,20.9023342 244.391998,21.123332 244.698,21.384 L243.746,22.659 C243.519332,22.4663324 243.295501,22.3161672 243.0745,22.2085 C242.853499,22.1008328 242.612668,22.047 242.352,22.047 C241.671997,22.047 241.122335,22.2991641 240.703,22.8035 C240.283665,23.3078359 240.074,23.9849957 240.074,24.835 C240.074,25.6736709 240.280831,26.3451641 240.6945,26.8495 C241.108169,27.3538359 241.643663,27.606 242.301,27.606 C242.629668,27.606 242.938499,27.5351674 243.2275,27.3935 C243.516501,27.2518326 243.779999,27.0846676 244.018,26.892 L244.817,28.184 C244.420331,28.5240017 243.986836,28.7789992 243.5165,28.949 C243.046164,29.1190008 242.573002,29.204 242.097,29.204 Z M246.466,29 L246.466,20.653 L248.421,20.653 L248.421,23.509 L249.305,23.509 C249.803669,23.509 250.265498,23.5599995 250.6905,23.662 C251.115502,23.7640005 251.480998,23.9226656 251.787,24.138 C252.093002,24.3533344 252.333832,24.6338316 252.5095,24.9795 C252.685168,25.3251684 252.773,25.7416642 252.773,26.229 C252.773,26.7276692 252.685168,27.1526649 252.5095,27.504 C252.333832,27.8553351 252.093002,28.1414989 251.787,28.3625 C251.480998,28.5835011 251.115502,28.7449995 250.6905,28.847 C250.265498,28.9490005 249.803669,29 249.305,29 L246.466,29 Z M248.421,27.487 L249.186,27.487 C250.308006,27.487 250.869,27.0620043 250.869,26.212 C250.869,25.3959959 250.308006,24.988 249.186,24.988 L248.421,24.988 L248.421,27.487 Z M254.048,29 L254.048,20.653 L256.003,20.653 L256.003,29 L254.048,29 Z M258.264,29.204 C257.935332,29.204 257.640668,29.1473339 257.38,29.034 L257.72,27.266 C257.776667,27.2886668 257.836166,27.3056666 257.8985,27.317 C257.960834,27.3283334 258.037333,27.334 258.128,27.334 C258.388668,27.334 258.603999,27.2178345 258.774,26.9855 C258.944001,26.7531655 259.063,26.3706693 259.131,25.838 C259.244334,24.965329 259.349166,24.1011709 259.4455,23.2455 C259.541834,22.3898291 259.635333,21.525671 259.726,20.653 L265.387,20.653 L265.387,29 L263.432,29 L263.432,22.2 L261.29,22.2 C261.199333,22.8913368 261.114334,23.5854965 261.035,24.2825 C260.955666,24.9795035 260.870667,25.6736632 260.78,26.365 C260.655333,27.294338 260.383335,27.9998309 259.964,28.4815 C259.544665,28.9631691 258.978004,29.204 258.264,29.204 Z M271.286,29.204 C270.764664,29.204 270.266002,29.1076676 269.79,28.915 C269.313998,28.7223324 268.891835,28.4390019 268.5235,28.065 C268.155165,27.6909981 267.863334,27.2320027 267.648,26.688 C267.432666,26.1439973 267.325,25.5263368 267.325,24.835 C267.325,24.1436632 267.432666,23.5260027 267.648,22.982 C267.863334,22.4379973 268.155165,21.9790019 268.5235,21.605 C268.891835,21.2309981 269.313998,20.9448343 269.79,20.7465 C270.266002,20.5481657 270.764664,20.449 271.286,20.449 C271.807336,20.449 272.308831,20.5481657 272.7905,20.7465 C273.272169,20.9448343 273.694332,21.2309981 274.057,21.605 C274.419668,21.9790019 274.711499,22.4379973 274.9325,22.982 C275.153501,23.5260027 275.264,24.1436632 275.264,24.835 C275.264,25.5263368 275.153501,26.1439973 274.9325,26.688 C274.711499,27.2320027 274.419668,27.6909981 274.057,28.065 C273.694332,28.4390019 273.272169,28.7223324 272.7905,28.915 C272.308831,29.1076676 271.807336,29.204 271.286,29.204 Z M271.286,27.606 C271.898003,27.606 272.379665,27.3538359 272.731,26.8495 C273.082335,26.3451641 273.258,25.6736709 273.258,24.835 C273.258,23.9849957 273.082335,23.3078359 272.731,22.8035 C272.379665,22.2991641 271.898003,22.047 271.286,22.047 C270.673997,22.047 270.195168,22.2991641 269.8495,22.8035 C269.503832,23.3078359 269.331,23.9849957 269.331,24.835 C269.331,25.6736709 269.503832,26.3451641 269.8495,26.8495 C270.195168,27.3538359 270.673997,27.606 271.286,27.606 Z M277.202,29 L277.202,20.653 L279.157,20.653 L279.157,23.9 L280.381,23.9 L281.163,22.217 C281.321667,21.8543315 281.488832,21.5596678 281.6645,21.333 C281.840168,21.1063322 282.024332,20.927834 282.217,20.7975 C282.409668,20.667166 282.619332,20.5765003 282.846,20.5255 C283.072668,20.4744997 283.316332,20.449 283.577,20.449 C283.803668,20.449 284.001999,20.4829997 284.172,20.551 L283.849,22.37 C283.746999,22.3359998 283.645001,22.319 283.543,22.319 C283.338999,22.319 283.146334,22.3784994 282.965,22.4975 C282.783666,22.6165006 282.602334,22.8856646 282.421,23.305 L281.843,24.597 L284.682,29 L282.523,29 L280.415,25.464 L279.157,25.464 L279.157,29 L277.202,29 Z" id="Linker---сокращатель" fill="#FFFFFF"></path>
                    </g>
                </g>
            </g>
        </g>
    </g>
</svg>