<?xml version="1.0" encoding="UTF-8"?>
<svg width="520px" height="360px" viewBox="0 0 520 360" version="1.1" xmlns="http://www.w3.org/2000/svg" xmlns:xlink="http://www.w3.org/1999/xlink">
    <!-- Generator: Sketch 52.5 (67469) - http://www.bohemiancoding.com/sketch -->
    <title>uno</title>
    <desc>Created with Sketch.</desc>
    <defs>
        <rect id="path-1" x="0" y="0" width="520" height="360"></rect>
        <rect id="path-3" x="0" y="0" width="520" height="360"></rect>
        <ellipse id="path-5" cx="116.718931" cy="71.364567" rx="116.27128" ry="70.4674425"></ellipse>
        <linearGradient x1="50%" y1="0%" x2="50%" y2="100%" id="linearGradient-7">
            <stop stop-color="#FFFFFF" stop-opacity="0.0776721014" offset="0%"></stop>
            <stop stop-color="#FFFFFF" stop-opacity="0.2" offset="100%"></stop>
        </linearGradient>
        <ellipse id="path-8" cx="116.718931" cy="71.364567" rx="116.27128" ry="70.4674425"></ellipse>
    </defs>
    <g id="Page-1" stroke="none" stroke-width="1" fill="none" fill-rule="evenodd">
        <g id="uno">
            <g id="Rectangle" fill="#ECECEC">
                <rect id="path-1" x="0" y="0" width="520" height="360"></rect>
            </g>
            <g id="Rectangle-Clipped">
                <mask id="mask-2" fill="white">
                    <use xlink:href="#path-1"></use>
                </mask>
                <g id="path-1"></g>
                <rect id="Rectangle" fill="#26282A" mask="url(#mask-2)" x="0" y="0" width="520" height="360"></rect>
            </g>
            <g id="Group-7-Clipped">
                <mask id="mask-4" fill="white">
                    <use xlink:href="#path-3"></use>
                </mask>
                <g id="path-1"></g>
                <g id="Group-7" mask="url(#mask-4)">
                    <g transform="translate(116.000000, 30.000000)" id="Group">
                        <g>
                            <ellipse id="Mask" fill="#F8F8F8" transform="translate(143.453717, 149.745624) rotate(-50.000000) translate(-143.453717, -149.745624) " cx="143.453717" cy="149.745624" rx="129.581152" ry="78.5340314"></ellipse>
                            <g id="Group-2" transform="translate(14.050576, 14.573473)">
                                <g id="Mask" transform="translate(129.298930, 135.297939) rotate(-50.000000) translate(-129.298930, -135.297939) translate(12.798930, 64.297939)" fill="#26282A">
                                    <ellipse id="path-3" cx="116.718931" cy="71.364567" rx="116.27128" ry="70.4674425"></ellipse>
                                </g>
                                <g id="Group-3-Clipped" transform="translate(129.500000, 135.000000) rotate(-50.000000) translate(-129.500000, -135.000000) translate(13.000000, 64.000000)">
                                    <mask id="mask-6" fill="white">
                                        <use xlink:href="#path-5"></use>
                                    </mask>
                                    <g id="path-3"></g>
                                    <g id="Group-3" opacity="0.799665179" mask="url(#mask-6)">
                                        <g transform="translate(1.000000, -42.000000)" id="Rectangle-5">
                                            <g transform="translate(0.350785, 0.204188)">
                                                <polygon id="Path" fill="url(#linearGradient-7)" points="107.591623 3.14136126 133.507853 3.14136126 115.445026 113.089005"></polygon>
                                                <polygon id="Path" fill="url(#linearGradient-7)" transform="translate(169.325200, 118.029594) rotate(90.000000) translate(-169.325200, -118.029594) " points="156.367084 63.0557717 182.283315 63.0557717 164.220487 173.003415"></polygon>
                                                <polygon id="Path" fill="url(#linearGradient-7)" transform="translate(59.685864, 107.984293) rotate(-90.000000) translate(-59.685864, -107.984293) " points="46.7277489 53.0104712 72.6439793 53.0104712 54.581152 162.958115"></polygon>
                                                <polygon id="Path" fill="url(#linearGradient-7)" transform="translate(80.234086, 70.810003) rotate(-45.000000) translate(-80.234086, -70.810003) " points="67.2759709 15.8361804 93.1922013 15.8361804 75.1293741 125.783825"></polygon>
                                                <polygon id="Path" fill="url(#linearGradient-7)" transform="translate(150.129374, 154.841416) rotate(135.000000) translate(-150.129374, -154.841416) " points="137.171259 99.867594 163.087489 99.867594 145.024662 209.815238"></polygon>
                                                <polygon id="Path" fill="url(#linearGradient-7)" transform="translate(129.146339, 164.467395) rotate(160.000000) translate(-129.146339, -164.467395) " points="116.188224 109.493573 142.104454 109.493573 124.041627 219.441217"></polygon>
                                                <polygon id="Path" fill="url(#linearGradient-7)" transform="translate(163.682054, 135.429061) rotate(110.000000) translate(-163.682054, -135.429061) " points="150.723939 80.4552392 176.640169 80.4552392 158.577342 190.402883"></polygon>
                                                <polygon id="Path" fill="url(#linearGradient-7)" transform="translate(67.864984, 89.950804) rotate(-70.000000) translate(-67.864984, -89.950804) " points="54.9068687 34.9769818 80.8230991 34.9769818 62.7602719 144.924626"></polygon>
                                                <polygon id="Path" fill="url(#linearGradient-7)" transform="translate(101.730909, 61.582262) rotate(-20.000000) translate(-101.730909, -61.582262) " points="88.7727932 6.60843938 114.689024 6.60843938 96.6261963 116.556084"></polygon>
                                                <polygon id="Path" fill="url(#linearGradient-7)" transform="translate(160.338798, 74.736705) rotate(45.000000) translate(-160.338798, -74.736705) " points="147.380683 14.2096878 173.296914 14.2096878 155.234086 135.263721"></polygon>
                                                <polygon id="Path" fill="url(#linearGradient-7)" transform="translate(171.850767, 92.297685) rotate(65.000000) translate(-171.850767, -92.297685) " points="158.892652 31.7706684 184.808882 31.7706684 166.746055 152.824702"></polygon>
                                                <polygon id="Path" fill="url(#linearGradient-7)" transform="translate(144.915486, 60.332443) rotate(25.000000) translate(-144.915486, -60.332443) " points="131.957371 -0.194573968 157.873601 -0.194573968 139.810774 120.859459"></polygon>
                                                <polygon id="Path" fill="url(#linearGradient-7)" transform="translate(70.810003, 150.914716) rotate(-135.000000) translate(-70.810003, -150.914716) " points="57.8518878 90.3876992 83.7681181 90.3876992 65.7052909 211.441732"></polygon>
                                                <polygon id="Path" fill="url(#linearGradient-7)" transform="translate(86.014963, 164.782704) rotate(-155.000000) translate(-86.014963, -164.782704) " points="73.0568483 104.255687 98.9730787 104.255687 80.9102515 225.30972"></polygon>
                                                <polygon id="Path" fill="url(#linearGradient-7)" transform="translate(60.332443, 133.135383) rotate(-115.000000) translate(-60.332443, -133.135383) " points="47.3743275 72.6083661 73.2905579 72.6083661 55.2277306 193.662399"></polygon>
                                                <polygon id="Path" fill="url(#linearGradient-7)" transform="translate(110.340314, 168.062827) rotate(-180.000000) translate(-110.340314, -168.062827) " points="97.382199 113.089005 123.298429 113.089005 105.235602 223.036649"></polygon>
                                            </g>
                                        </g>
                                    </g>
                                </g>
                                <g id="UNO-Clipped" transform="translate(13.000000, 64.000000)">
                                    <mask id="mask-9" fill="white">
                                        <use xlink:href="#path-8"></use>
                                    </mask>
                                    <g id="path-3"></g>
                                    <g id="UNO" mask="url(#mask-9)">
                                        <g transform="translate(120.032315, 71.495712) rotate(-20.000000) translate(-120.032315, -71.495712) translate(31.032315, 41.995712)" id="path-6-link">
                                            <g>
                                                <path d="M25.2343651,47.527951 C27.0144787,47.527951 28.6047769,47.233451 30.0053075,46.644443 C31.4058381,46.055435 32.5903812,45.211202 33.5589724,44.11172 C34.5275636,43.012239 35.267085,41.670629 35.7775588,40.086851 C36.2880326,38.503074 36.5432656,36.703354 36.5432656,34.687637 L36.5432656,0.800202 L49.8155169,0.800202 L49.8155169,34.687637 C49.8155169,38.195508 49.2461509,41.415371 48.1074017,44.347323 C46.9686526,47.279274 45.3390877,49.805427 43.2186583,51.925857 C41.0982288,54.046286 38.5197206,55.695484 35.4830562,56.873501 C32.4463918,58.051517 29.0301956,58.640516 25.2343651,58.640516 C21.4123564,58.640516 17.9830714,58.051517 14.946407,56.873501 C11.9097426,55.695484 9.3312343,54.046286 7.2108049,51.925857 C5.0903754,49.805427 3.467355,47.279274 2.3416949,44.347323 C1.2160348,41.415371 0.6532133,38.195508 0.6532133,34.687637 L0.6532133,0.800202 L13.9254646,0.800202 L13.9254646,34.64837 C13.9254646,36.664087 14.1806976,38.463807 14.6911714,40.047584 C15.2016451,41.631362 15.9411665,42.979516 16.9097578,44.092087 C17.878349,45.204658 19.0628921,46.055435 20.4634227,46.644443 C21.8639532,47.233451 23.4542515,47.527951 25.2343651,47.527951 Z M110.129653,0.800202 L110.129653,58.012244 L103.218658,58.012244 C102.197711,58.012244 101.340389,57.848633 100.646669,57.521406 C99.952948,57.19418 99.265782,56.624814 98.58515,55.813291 L71.608711,21.690255 C71.713423,22.711202 71.785412,23.699412 71.824679,24.654914 C71.863946,25.610416 71.88358,26.507004 71.88358,27.344705 L71.88358,58.012244 L60.182009,58.012244 L60.182009,0.800202 L67.171538,0.800202 C67.747457,0.800202 68.231745,0.82638 68.624417,0.878736 C69.01709,0.931092 69.370489,1.029259 69.684627,1.173239 C69.998765,1.317219 70.299809,1.520096 70.587768,1.781878 C70.875728,2.043659 71.20295,2.397059 71.569444,2.842087 L98.781486,37.200726 C98.650595,36.101244 98.558973,35.034501 98.506616,34.000464 C98.45426,32.966427 98.428082,31.991306 98.428082,31.075071 L98.428082,0.800202 L110.129653,0.800202 Z M177.354784,29.38659 C177.354784,33.522736 176.64144,37.370865 175.214732,40.931092 C173.788023,44.491319 171.778881,47.586838 169.187245,50.217741 C166.595609,52.848645 163.473912,54.910142 159.822061,56.402296 C156.170211,57.89445 152.119204,58.640516 147.66892,58.640516 C143.218636,58.640516 139.161085,57.89445 135.496145,56.402296 C131.831205,54.910142 128.69642,52.848645 126.091695,50.217741 C123.48697,47.586838 121.471283,44.491319 120.044575,40.931092 C118.617866,37.370865 117.904522,33.522736 117.904522,29.38659 C117.904522,25.250443 118.617866,21.402314 120.044575,17.842087 C121.471283,14.28186 123.48697,11.192885 126.091695,8.575071 C128.69642,5.957257 131.831205,3.902304 135.496145,2.41015 C139.161085,0.917996 143.218636,0.17193 147.66892,0.17193 C152.119204,0.17193 156.170211,0.92454 159.822061,2.429783 C163.473912,3.935026 166.595609,5.996524 169.187245,8.614338 C171.778881,11.232152 173.788023,14.321127 175.214732,17.881354 C176.64144,21.441581 177.354784,25.276621 177.354784,29.38659 Z M163.768396,29.38659 C163.768396,26.55935 163.401908,24.013564 162.66892,21.749155 C161.935932,19.484746 160.882278,17.567226 159.507925,15.996537 C158.133573,14.425849 156.451653,13.221672 154.462114,12.383972 C152.472575,11.546271 150.2082,11.127427 147.66892,11.127427 C145.103462,11.127427 142.819454,11.546271 140.816826,12.383972 C138.814198,13.221672 137.125733,14.425849 135.751381,15.996537 C134.377028,17.567226 133.323374,19.484746 132.590386,21.749155 C131.857398,24.013564 131.49091,26.55935 131.49091,29.38659 C131.49091,32.240007 131.857398,34.798882 132.590386,37.063291 C133.323374,39.3277 134.377028,41.24522 135.751381,42.815909 C137.125733,44.386597 138.814198,45.584229 140.816826,46.408841 C142.819454,47.233452 145.103462,47.645752 147.66892,47.645752 C150.2082,47.645752 152.472575,47.233452 154.462114,46.408841 C156.451653,45.584229 158.133573,44.386597 159.507925,42.815909 C160.882278,41.24522 161.935932,39.3277 162.66892,37.063291 C163.401908,34.798882 163.768396,32.240007 163.768396,29.38659 Z" id="path-6" fill="#000000" fill-rule="nonzero"></path>
                                            </g>
                                            <g>
                                                <path d="M25.2343651,47.527951 C27.0144787,47.527951 28.6047769,47.233451 30.0053075,46.644443 C31.4058381,46.055435 32.5903812,45.211202 33.5589724,44.11172 C34.5275636,43.012239 35.267085,41.670629 35.7775588,40.086851 C36.2880326,38.503074 36.5432656,36.703354 36.5432656,34.687637 L36.5432656,0.800202 L49.8155169,0.800202 L49.8155169,34.687637 C49.8155169,38.195508 49.2461509,41.415371 48.1074017,44.347323 C46.9686526,47.279274 45.3390877,49.805427 43.2186583,51.925857 C41.0982288,54.046286 38.5197206,55.695484 35.4830562,56.873501 C32.4463918,58.051517 29.0301956,58.640516 25.2343651,58.640516 C21.4123564,58.640516 17.9830714,58.051517 14.946407,56.873501 C11.9097426,55.695484 9.3312343,54.046286 7.2108049,51.925857 C5.0903754,49.805427 3.467355,47.279274 2.3416949,44.347323 C1.2160348,41.415371 0.6532133,38.195508 0.6532133,34.687637 L0.6532133,0.800202 L13.9254646,0.800202 L13.9254646,34.64837 C13.9254646,36.664087 14.1806976,38.463807 14.6911714,40.047584 C15.2016451,41.631362 15.9411665,42.979516 16.9097578,44.092087 C17.878349,45.204658 19.0628921,46.055435 20.4634227,46.644443 C21.8639532,47.233451 23.4542515,47.527951 25.2343651,47.527951 Z M110.129653,0.800202 L110.129653,58.012244 L103.218658,58.012244 C102.197711,58.012244 101.340389,57.848633 100.646669,57.521406 C99.952948,57.19418 99.265782,56.624814 98.58515,55.813291 L71.608711,21.690255 C71.713423,22.711202 71.785412,23.699412 71.824679,24.654914 C71.863946,25.610416 71.88358,26.507004 71.88358,27.344705 L71.88358,58.012244 L60.182009,58.012244 L60.182009,0.800202 L67.171538,0.800202 C67.747457,0.800202 68.231745,0.82638 68.624417,0.878736 C69.01709,0.931092 69.370489,1.029259 69.684627,1.173239 C69.998765,1.317219 70.299809,1.520096 70.587768,1.781878 C70.875728,2.043659 71.20295,2.397059 71.569444,2.842087 L98.781486,37.200726 C98.650595,36.101244 98.558973,35.034501 98.506616,34.000464 C98.45426,32.966427 98.428082,31.991306 98.428082,31.075071 L98.428082,0.800202 L110.129653,0.800202 Z M177.354784,29.38659 C177.354784,33.522736 176.64144,37.370865 175.214732,40.931092 C173.788023,44.491319 171.778881,47.586838 169.187245,50.217741 C166.595609,52.848645 163.473912,54.910142 159.822061,56.402296 C156.170211,57.89445 152.119204,58.640516 147.66892,58.640516 C143.218636,58.640516 139.161085,57.89445 135.496145,56.402296 C131.831205,54.910142 128.69642,52.848645 126.091695,50.217741 C123.48697,47.586838 121.471283,44.491319 120.044575,40.931092 C118.617866,37.370865 117.904522,33.522736 117.904522,29.38659 C117.904522,25.250443 118.617866,21.402314 120.044575,17.842087 C121.471283,14.28186 123.48697,11.192885 126.091695,8.575071 C128.69642,5.957257 131.831205,3.902304 135.496145,2.41015 C139.161085,0.917996 143.218636,0.17193 147.66892,0.17193 C152.119204,0.17193 156.170211,0.92454 159.822061,2.429783 C163.473912,3.935026 166.595609,5.996524 169.187245,8.614338 C171.778881,11.232152 173.788023,14.321127 175.214732,17.881354 C176.64144,21.441581 177.354784,25.276621 177.354784,29.38659 Z M163.768396,29.38659 C163.768396,26.55935 163.401908,24.013564 162.66892,21.749155 C161.935932,19.484746 160.882278,17.567226 159.507925,15.996537 C158.133573,14.425849 156.451653,13.221672 154.462114,12.383972 C152.472575,11.546271 150.2082,11.127427 147.66892,11.127427 C145.103462,11.127427 142.819454,11.546271 140.816826,12.383972 C138.814198,13.221672 137.125733,14.425849 135.751381,15.996537 C134.377028,17.567226 133.323374,19.484746 132.590386,21.749155 C131.857398,24.013564 131.49091,26.55935 131.49091,29.38659 C131.49091,32.240007 131.857398,34.798882 132.590386,37.063291 C133.323374,39.3277 134.377028,41.24522 135.751381,42.815909 C137.125733,44.386597 138.814198,45.584229 140.816826,46.408841 C142.819454,47.233452 145.103462,47.645752 147.66892,47.645752 C150.2082,47.645752 152.472575,47.233452 154.462114,46.408841 C156.451653,45.584229 158.133573,44.386597 159.507925,42.815909 C160.882278,41.24522 161.935932,39.3277 162.66892,37.063291 C163.401908,34.798882 163.768396,32.240007 163.768396,29.38659 Z" id="path-6" fill="#FFFFFF"></path>
                                            </g>
                                        </g>
                                    </g>
                                </g>
                            </g>
                        </g>
                    </g>
                </g>
            </g>
        </g>
    </g>
</svg>