<?xml version="1.0" encoding="UTF-8"?>
<svg width="520px" height="360px" viewBox="0 0 520 360" version="1.1" xmlns="http://www.w3.org/2000/svg" xmlns:xlink="http://www.w3.org/1999/xlink">
    <!-- Generator: Sketch 52.5 (67469) - http://www.bohemiancoding.com/sketch -->
    <title>Rectangle 2</title>
    <desc>Created with Sketch.</desc>
    <defs>
        <rect id="path-1" x="0" y="0" width="520" height="360"></rect>
    </defs>
    <g id="Page-1" stroke="none" stroke-width="1" fill="none" fill-rule="evenodd">
        <g id="Artboard" transform="translate(-340.000000, -162.000000)">
            <g id="Rectangle-2" transform="translate(340.000000, 162.000000)">
                <mask id="mask-2" fill="white">
                    <use xlink:href="#path-1"></use>
                </mask>
                <use id="Rectangle" fill="#ECECEC" xlink:href="#path-1"></use>
                <rect id="Rectangle" fill="#F1CDF8" mask="url(#mask-2)" x="0" y="0" width="520" height="360"></rect>
                <g id="Group-4" mask="url(#mask-2)">
                    <g transform="translate(158.000000, 80.000000)">
                        <g id="delete" stroke="none" stroke-width="1" fill-rule="evenodd">
                            <path d="M38.5740974,7.86372493 L26.4774785,19.9616046 L38.5740974,32.0589112 C40.3734097,33.8589112 40.3734097,36.7746705 38.5740974,38.5746705 C37.6750716,39.4736963 36.4963897,39.923553 35.3182808,39.923553 C34.1382235,39.923553 32.9594269,39.474384 32.0610888,38.5746705 L19.9618338,26.4759885 L7.8634957,38.5745559 C6.96458453,39.4735817 5.78578797,39.9234384 4.60664756,39.9234384 C3.427851,39.9234384 2.24985673,39.4742693 1.35014327,38.5745559 C-0.449169054,36.7753582 -0.449169054,33.8594842 1.35014327,32.0587966 L13.4464183,19.96149 L1.34945559,7.86372493 C-0.449856734,6.06441261 -0.449856734,3.14796562 1.34945559,1.3486533 C3.14842407,-0.449283668 6.06315186,-0.449283668 7.86280802,1.3486533 L19.9617192,13.446533 L32.0597135,1.3486533 C33.8597135,-0.449283668 36.7747851,-0.449283668 38.5734097,1.3486533 C40.3734097,3.14796562 40.3734097,6.06441261 38.5740974,7.86372493 Z" id="Path" fill="#2B2B2B"></path>
                        </g>
                        <g id="delete" stroke="none" stroke-width="1" fill-rule="evenodd" transform="translate(80.000000, 80.000000)">
                            <path d="M38.5740974,7.86372493 L26.4774785,19.9616046 L38.5740974,32.0589112 C40.3734097,33.8589112 40.3734097,36.7746705 38.5740974,38.5746705 C37.6750716,39.4736963 36.4963897,39.923553 35.3182808,39.923553 C34.1382235,39.923553 32.9594269,39.474384 32.0610888,38.5746705 L19.9618338,26.4759885 L7.8634957,38.5745559 C6.96458453,39.4735817 5.78578797,39.9234384 4.60664756,39.9234384 C3.427851,39.9234384 2.24985673,39.4742693 1.35014327,38.5745559 C-0.449169054,36.7753582 -0.449169054,33.8594842 1.35014327,32.0587966 L13.4464183,19.96149 L1.34945559,7.86372493 C-0.449856734,6.06441261 -0.449856734,3.14796562 1.34945559,1.3486533 C3.14842407,-0.449283668 6.06315186,-0.449283668 7.86280802,1.3486533 L19.9617192,13.446533 L32.0597135,1.3486533 C33.8597135,-0.449283668 36.7747851,-0.449283668 38.5734097,1.3486533 C40.3734097,3.14796562 40.3734097,6.06441261 38.5740974,7.86372493 Z" id="Path" fill="#2B2B2B"></path>
                        </g>
                        <g id="delete" stroke="none" stroke-width="1" fill-rule="evenodd" transform="translate(160.000000, 160.000000)">
                            <path d="M38.5740974,7.86372493 L26.4774785,19.9616046 L38.5740974,32.0589112 C40.3734097,33.8589112 40.3734097,36.7746705 38.5740974,38.5746705 C37.6750716,39.4736963 36.4963897,39.923553 35.3182808,39.923553 C34.1382235,39.923553 32.9594269,39.474384 32.0610888,38.5746705 L19.9618338,26.4759885 L7.8634957,38.5745559 C6.96458453,39.4735817 5.78578797,39.9234384 4.60664756,39.9234384 C3.427851,39.9234384 2.24985673,39.4742693 1.35014327,38.5745559 C-0.449169054,36.7753582 -0.449169054,33.8594842 1.35014327,32.0587966 L13.4464183,19.96149 L1.34945559,7.86372493 C-0.449856734,6.06441261 -0.449856734,3.14796562 1.34945559,1.3486533 C3.14842407,-0.449283668 6.06315186,-0.449283668 7.86280802,1.3486533 L19.9617192,13.446533 L32.0597135,1.3486533 C33.8597135,-0.449283668 36.7747851,-0.449283668 38.5734097,1.3486533 C40.3734097,3.14796562 40.3734097,6.06441261 38.5740974,7.86372493 Z" id="Path" fill="#2B2B2B"></path>
                        </g>
                        <circle id="Oval" stroke="#2B2B2B" stroke-width="8" cx="100" cy="20" r="16"></circle>
                        <circle id="Oval" stroke="#2B2B2B" stroke-width="8" cx="20" cy="100" r="16"></circle>
                        <circle id="Oval" stroke="#2B2B2B" stroke-width="8" cx="20" cy="180" r="16"></circle>
                        <circle id="Oval" stroke="#2B2B2B" stroke-width="8" cx="100" cy="180" r="16"></circle>
                        <g id="delete" stroke="none" stroke-width="1" fill-rule="evenodd" transform="translate(160.000000, 0.000000)">
                            <path d="M38.5740974,7.86372493 L26.4774785,19.9616046 L38.5740974,32.0589112 C40.3734097,33.8589112 40.3734097,36.7746705 38.5740974,38.5746705 C37.6750716,39.4736963 36.4963897,39.923553 35.3182808,39.923553 C34.1382235,39.923553 32.9594269,39.474384 32.0610888,38.5746705 L19.9618338,26.4759885 L7.8634957,38.5745559 C6.96458453,39.4735817 5.78578797,39.9234384 4.60664756,39.9234384 C3.427851,39.9234384 2.24985673,39.4742693 1.35014327,38.5745559 C-0.449169054,36.7753582 -0.449169054,33.8594842 1.35014327,32.0587966 L13.4464183,19.96149 L1.34945559,7.86372493 C-0.449856734,6.06441261 -0.449856734,3.14796562 1.34945559,1.3486533 C3.14842407,-0.449283668 6.06315186,-0.449283668 7.86280802,1.3486533 L19.9617192,13.446533 L32.0597135,1.3486533 C33.8597135,-0.449283668 36.7747851,-0.449283668 38.5734097,1.3486533 C40.3734097,3.14796562 40.3734097,6.06441261 38.5740974,7.86372493 Z" id="Path" fill="#2B2B2B"></path>
                        </g>
                        <g id="delete" stroke="none" stroke-width="1" fill-rule="evenodd" transform="translate(160.000000, 80.000000)">
                            <path d="M38.5740974,7.86372493 L26.4774785,19.9616046 L38.5740974,32.0589112 C40.3734097,33.8589112 40.3734097,36.7746705 38.5740974,38.5746705 C37.6750716,39.4736963 36.4963897,39.923553 35.3182808,39.923553 C34.1382235,39.923553 32.9594269,39.474384 32.0610888,38.5746705 L19.9618338,26.4759885 L7.8634957,38.5745559 C6.96458453,39.4735817 5.78578797,39.9234384 4.60664756,39.9234384 C3.427851,39.9234384 2.24985673,39.4742693 1.35014327,38.5745559 C-0.449169054,36.7753582 -0.449169054,33.8594842 1.35014327,32.0587966 L13.4464183,19.96149 L1.34945559,7.86372493 C-0.449856734,6.06441261 -0.449856734,3.14796562 1.34945559,1.3486533 C3.14842407,-0.449283668 6.06315186,-0.449283668 7.86280802,1.3486533 L19.9617192,13.446533 L32.0597135,1.3486533 C33.8597135,-0.449283668 36.7747851,-0.449283668 38.5734097,1.3486533 C40.3734097,3.14796562 40.3734097,6.06441261 38.5740974,7.86372493 Z" id="Path" fill="#2B2B2B"></path>
                        </g>
                    </g>
                </g>
            </g>
        </g>
    </g>
</svg>