<?xml version="1.0" encoding="UTF-8"?>
<svg width="18px" height="20px" viewBox="0 0 18 20" version="1.1" xmlns="http://www.w3.org/2000/svg" xmlns:xlink="http://www.w3.org/1999/xlink">
    <!-- Generator: Sketch 48.2 (47327) - http://www.bohemiancoding.com/sketch -->
    <title>arr</title>
    <desc>Created with Sketch.</desc>
    <defs></defs>
    <g id="Artboard" stroke="none" stroke-width="1" fill="none" fill-rule="evenodd" transform="translate(-535.000000, -148.000000)">
        <g id="arr" transform="translate(532.000000, 146.000000)">
            <rect id="Rectangle-path" x="0" y="0" width="24" height="24"></rect>
            <path d="M4.73867831,15.7541491 C4.05303459,17.6089863 3.62217789,18.9122158 3.44610819,19.6638378 C2.89276731,22.0259885 2.49042136,22.558052 4.55278984,21.4354509 C6.61515833,20.3128499 16.5993761,14.7518703 18.8269273,13.5160071 C21.7306352,11.9050068 21.7694377,12.0308707 18.6711438,10.3203699 C16.3113869,9.01759941 6.44420418,3.60166194 4.55278988,2.53824504 C2.66137558,1.47482814 2.89276736,1.9477073 3.4461082,4.30985812 C3.62445956,5.07122038 4.06157218,6.38608773 4.75744604,8.25446018 L4.75744944,8.25445891 C5.2441466,9.56120661 6.3762377,10.5201809 7.74523206,10.7853565 L13.5097097,11.9019419 C13.5638656,11.9127731 13.5989873,11.9654556 13.5881561,12.0196116 C13.5802389,12.0591977 13.5492958,12.0901408 13.5097097,12.0980581 L7.73223712,13.2135737 L7.7322368,13.2135721 C6.35880507,13.4787546 5.22367175,14.442121 4.73867831,15.7541491 Z" id="Shape" fill="#FFFFFF" fill-rule="nonzero"></path>
        </g>
    </g>
</svg>